<svg xmlns="http://www.w3.org/2000/svg" version="1.1" xmlns:xlink="http://www.w3.org/1999/xlink" width="24" height="24"><svg xmlns="http://www.w3.org/2000/svg" version="1.1" xmlns:xlink="http://www.w3.org/1999/xlink" width="24" height="24"><svg width="24" height="24" viewBox="0 0 24 24" stroke-width="1.5" fill="none" color="#ffffff" version="1.1" id="svg9" xmlns="http://www.w3.org/2000/svg" xmlns:svg="http://www.w3.org/2000/svg">
  <defs id="defs9"></defs>
  <g id="g18" transform="matrix(1.0044319,0,0,1.0044319,34.82442,2.2536406)" style="fill:#232d42;fill-opacity:1;stroke:#232d42;stroke-opacity:1">
    <path d="m -23.02372,-1.1700237 c 0.1856,-0.10717 0.4144,-0.10717 0.6,1e-5 l 8.9263,5.15359 c 0.1856,0.10717 0.3,0.30525 0.3,0.51961 V 14.810376 c 0,0.2143 -0.1144,0.4124 -0.3,0.5196 l -8.9263,5.1536 c -0.1856,0.1072 -0.4144,0.1072 -0.6,0 l -8.92628,-5.1536 c -0.18564,-0.1072 -0.3,-0.3053 -0.3,-0.5196 V 4.5031863 c 0,-0.21436 0.11436,-0.41244 0.3,-0.51962 z" stroke="#ffffff" stroke-width="1.5" stroke-linecap="round" stroke-linejoin="round" id="path10" style="fill:#232d42;fill-opacity:1;stroke:#232d42;stroke-opacity:1"></path>
    <path d="m -17.72372,12.656776 h -10 l 5,-7.9999997 z" stroke="#ffffff" stroke-width="1.5" stroke-linecap="round" stroke-linejoin="round" id="path11" style="fill:#232d42;fill-opacity:1;stroke:#232d42;stroke-opacity:1"></path>
    <path d="m -32.22372,4.1567763 9.5,0.5" stroke="#ffffff" stroke-width="1.5" stroke-linejoin="round" id="path12" style="fill:#232d42;fill-opacity:1;stroke:#232d42;stroke-opacity:1"></path>
    <path d="m -32.22372,4.1567763 4.5,8.4999997" stroke="#ffffff" stroke-width="1.5" stroke-linejoin="round" id="path13" style="fill:#232d42;fill-opacity:1;stroke:#232d42;stroke-opacity:1"></path>
    <path d="m -13.22372,4.1567763 -4.5,8.4999997" stroke="#ffffff" stroke-width="1.5" stroke-linejoin="round" id="path14" style="fill:#232d42;fill-opacity:1;stroke:#232d42;stroke-opacity:1"></path>
    <path d="m -13.22372,4.1567763 -9.5,0.49995 v -5.99995" stroke="#ffffff" stroke-width="1.5" stroke-linejoin="round" id="path15" style="fill:#232d42;fill-opacity:1;stroke:#232d42;stroke-opacity:1"></path>
    <path d="m -13.22372,15.156776 -4.5,-2.5" stroke="#ffffff" stroke-width="1.5" stroke-linejoin="round" id="path16" style="fill:#232d42;fill-opacity:1;stroke:#232d42;stroke-opacity:1"></path>
    <path d="m -32.22372,15.156776 4.5,-2.5" stroke="#ffffff" stroke-width="1.5" stroke-linejoin="round" id="path17" style="fill:#232d42;fill-opacity:1;stroke:#232d42;stroke-opacity:1"></path>
    <path d="m -27.72372,12.656776 5,8 5,-8" stroke="#ffffff" stroke-width="1.5" stroke-linejoin="round" id="path18" style="fill:#232d42;fill-opacity:1;stroke:#232d42;stroke-opacity:1"></path>
  </g>
  <g id="g10" transform="matrix(0.89645417,0,0,0.89645417,1.2425409,1.2007944)" style="stroke:#f2f2f2;stroke-opacity:1">
    <path d="m 11.7,1.1732 c 0.1856,-0.10717 0.4144,-0.10717 0.6,1e-5 l 8.9263,5.15359 c 0.1856,0.10717 0.3,0.30525 0.3,0.51961 V 17.1536 c 0,0.2143 -0.1144,0.4124 -0.3,0.5196 L 12.3,22.8268 c -0.1856,0.1072 -0.4144,0.1072 -0.6,0 L 2.77372,17.6732 c -0.18564,-0.1072 -0.3,-0.3053 -0.3,-0.5196 V 6.84641 c 0,-0.21436 0.11436,-0.41244 0.3,-0.51962 z" stroke="#ffffff" stroke-width="1.5" stroke-linecap="round" stroke-linejoin="round" id="path1" style="stroke:#f2f2f2;stroke-opacity:1"></path>
    <path d="M 17,15 H 7 l 5,-8 z" stroke="#ffffff" stroke-width="1.5" stroke-linecap="round" stroke-linejoin="round" id="path2" style="stroke:#f2f2f2;stroke-opacity:1"></path>
    <path d="M 2.5,6.5 12,7" stroke="#ffffff" stroke-width="1.5" stroke-linejoin="round" id="path3" style="stroke:#f2f2f2;stroke-opacity:1"></path>
    <path d="M 2.5,6.5 7,15" stroke="#ffffff" stroke-width="1.5" stroke-linejoin="round" id="path4" style="stroke:#f2f2f2;stroke-opacity:1"></path>
    <path d="M 21.5,6.5 17,15" stroke="#ffffff" stroke-width="1.5" stroke-linejoin="round" id="path5" style="stroke:#f2f2f2;stroke-opacity:1"></path>
    <path d="M 21.5,6.5 12,6.99995 V 1" stroke="#ffffff" stroke-width="1.5" stroke-linejoin="round" id="path6" style="stroke:#f2f2f2;stroke-opacity:1"></path>
    <path d="M 21.5,17.5 17,15" stroke="#ffffff" stroke-width="1.5" stroke-linejoin="round" id="path7" style="stroke:#f2f2f2;stroke-opacity:1"></path>
    <path d="M 2.5,17.5 7,15" stroke="#ffffff" stroke-width="1.5" stroke-linejoin="round" id="path8" style="stroke:#f2f2f2;stroke-opacity:1"></path>
    <path d="m 7,15 5,8 5,-8" stroke="#ffffff" stroke-width="1.5" stroke-linejoin="round" id="path9" style="stroke:#f2f2f2;stroke-opacity:1"></path>
  </g>
</svg></svg><style>@media (prefers-color-scheme: light) { :root { filter: none; } }
@media (prefers-color-scheme: dark) { :root { filter: none; } }
</style></svg>